# MagicaVoxel @ Ephtracy

# group
g kitchen_stand 2

# material
mtllib kitchen_stand 2.mtl
usemtl palette

# normals
vn -1 0 0
vn 1 0 0
vn 0 0 1
vn 0 0 -1
vn 0 -1 0
vn 0 1 0

# texcoords
vt 0.970703 0.5
vt 0.978516 0.5
vt 0.982422 0.5
vt 0.990234 0.5

# verts
v -5.5 8 4.5
v -5.5 8 -4.5
v -5.5 10 4.5
v -5.5 10 -4.5
v -4.5 0 4.5
v -4.5 0 -4.5
v -4.5 1 3.5
v -4.5 1 0.5
v -4.5 1 -0.5
v -4.5 1 -3.5
v -4.5 7 3.5
v -4.5 7 0.5
v -4.5 7 -0.5
v -4.5 7 -3.5
v -4.5 8 4.5
v -4.5 8 -4.5
v 0.5 1 3.5
v 0.5 1 0.5
v 0.5 1 -0.5
v 0.5 1 -3.5
v 0.5 7 3.5
v 0.5 7 0.5
v 0.5 7 -0.5
v 0.5 7 -3.5
v 4.5 10 4.5
v 4.5 10 -4.5
v 4.5 11 4.5
v 4.5 11 -4.5
v 5.5 0 4.5
v 5.5 0 -4.5
v 5.5 9 4.5
v 5.5 9 -4.5
v 5.5 11 4.5
v 5.5 11 -4.5
v -5.5 8 4.5
v -5.5 10 4.5
v -4.5 0 4.5
v -4.5 8 4.5
v -4.5 9 4.5
v 4.5 10 4.5
v 4.5 11 4.5
v 5.5 0 4.5
v 5.5 9 4.5
v 5.5 11 4.5
v -4.5 1 0.5
v -4.5 7 0.5
v 0.5 1 0.5
v 0.5 7 0.5
v -4.5 1 -3.5
v -4.5 7 -3.5
v 0.5 1 -3.5
v 0.5 7 -3.5
v -4.5 1 3.5
v -4.5 7 3.5
v 0.5 1 3.5
v 0.5 7 3.5
v -4.5 1 -0.5
v -4.5 7 -0.5
v 0.5 1 -0.5
v 0.5 7 -0.5
v -5.5 8 -4.5
v -5.5 10 -4.5
v -4.5 0 -4.5
v -4.5 8 -4.5
v -4.5 9 -4.5
v 4.5 10 -4.5
v 4.5 11 -4.5
v 5.5 0 -4.5
v 5.5 9 -4.5
v 5.5 11 -4.5
v -4.5 0 4.5
v 5.5 0 4.5
v -4.5 0 -4.5
v 5.5 0 -4.5
v -4.5 7 3.5
v 0.5 7 3.5
v -4.5 7 0.5
v 0.5 7 0.5
v -4.5 7 -0.5
v 0.5 7 -0.5
v -4.5 7 -3.5
v 0.5 7 -3.5
v -5.5 8 4.5
v -4.5 8 4.5
v -5.5 8 -4.5
v -4.5 8 -4.5
v -4.5 1 3.5
v 0.5 1 3.5
v -4.5 1 0.5
v 0.5 1 0.5
v -4.5 1 -0.5
v 0.5 1 -0.5
v -4.5 1 -3.5
v 0.5 1 -3.5
v -5.5 10 4.5
v 4.5 10 4.5
v -5.5 10 -4.5
v 4.5 10 -4.5
v 4.5 11 4.5
v 5.5 11 4.5
v 4.5 11 -4.5
v 5.5 11 -4.5

# faces
f 3/4/1 2/4/1 1/4/1
f 4/4/1 2/4/1 3/4/1
f 7/2/1 6/2/1 5/2/1
f 8/2/1 6/2/1 7/2/1
f 9/2/1 6/2/1 8/2/1
f 10/2/1 6/2/1 9/2/1
f 11/2/1 7/2/1 5/2/1
f 12/2/1 9/2/1 8/2/1
f 13/2/1 9/2/1 12/2/1
f 14/2/1 6/2/1 10/2/1
f 15/2/1 13/2/1 12/2/1
f 15/2/1 14/2/1 13/2/1
f 15/2/1 11/2/1 5/2/1
f 15/2/1 12/2/1 11/2/1
f 16/2/1 6/2/1 14/2/1
f 16/2/1 14/2/1 15/2/1
f 21/2/1 18/2/1 17/2/1
f 22/2/1 18/2/1 21/2/1
f 23/2/1 20/2/1 19/2/1
f 24/2/1 20/2/1 23/2/1
f 27/4/1 26/4/1 25/4/1
f 28/4/1 26/4/1 27/4/1
f 29/2/2 30/2/2 31/2/2
f 31/2/2 30/2/2 32/2/2
f 31/4/2 32/4/2 33/4/2
f 33/4/2 32/4/2 34/4/2
f 38/4/3 36/4/3 35/4/3
f 39/4/3 36/4/3 38/4/3
f 40/4/3 36/4/3 39/4/3
f 42/2/3 38/2/3 37/2/3
f 42/2/3 39/2/3 38/2/3
f 43/4/3 41/4/3 40/4/3
f 43/2/3 39/2/3 42/2/3
f 43/4/3 40/4/3 39/4/3
f 44/4/3 41/4/3 43/4/3
f 47/2/3 46/2/3 45/2/3
f 48/2/3 46/2/3 47/2/3
f 51/2/3 50/2/3 49/2/3
f 52/2/3 50/2/3 51/2/3
f 53/2/4 54/2/4 55/2/4
f 55/2/4 54/2/4 56/2/4
f 57/2/4 58/2/4 59/2/4
f 59/2/4 58/2/4 60/2/4
f 61/4/4 62/4/4 64/4/4
f 64/4/4 62/4/4 65/4/4
f 65/4/4 62/4/4 66/4/4
f 63/2/4 64/2/4 68/2/4
f 64/2/4 65/2/4 68/2/4
f 66/4/4 67/4/4 69/4/4
f 68/2/4 65/2/4 69/2/4
f 65/4/4 66/4/4 69/4/4
f 69/4/4 67/4/4 70/4/4
f 73/2/5 72/2/5 71/2/5
f 74/2/5 72/2/5 73/2/5
f 77/2/5 76/2/5 75/2/5
f 78/2/5 76/2/5 77/2/5
f 81/2/5 80/2/5 79/2/5
f 82/2/5 80/2/5 81/2/5
f 85/4/5 84/4/5 83/4/5
f 86/4/5 84/4/5 85/4/5
f 87/2/6 88/2/6 89/2/6
f 89/2/6 88/2/6 90/2/6
f 91/2/6 92/2/6 93/2/6
f 93/2/6 92/2/6 94/2/6
f 95/4/6 96/4/6 97/4/6
f 97/4/6 96/4/6 98/4/6
f 99/4/6 100/4/6 101/4/6
f 101/4/6 100/4/6 102/4/6
