# MagicaVoxel @ Ephtracy

# group
g kitchen_stand door

# material
mtllib kitchen_stand door.mtl
usemtl palette

# normals
vn -1 0 0
vn 1 0 0
vn 0 0 1
vn 0 0 -1
vn 0 -1 0
vn 0 1 0

# texcoords
vt 0.978516 0.5
vt 0.990234 0.5

# verts
v -1 3 1.5
v -1 3 0.5
v -1 4 1.5
v -1 4 0.5
v 0 0 1.5
v 0 0 -1.5
v 0 3 1.5
v 0 3 0.5
v 0 4 1.5
v 0 4 0.5
v 0 6 1.5
v 0 6 -1.5
v 1 0 1.5
v 1 0 -1.5
v 1 6 1.5
v 1 6 -1.5
v -1 3 1.5
v -1 4 1.5
v 0 0 1.5
v 0 3 1.5
v 0 4 1.5
v 0 6 1.5
v 1 0 1.5
v 1 6 1.5
v -1 3 0.5
v -1 4 0.5
v 0 3 0.5
v 0 4 0.5
v 0 0 -1.5
v 0 6 -1.5
v 1 0 -1.5
v 1 6 -1.5
v 0 0 1.5
v 1 0 1.5
v 0 0 -1.5
v 1 0 -1.5
v -1 3 1.5
v 0 3 1.5
v -1 3 0.5
v 0 3 0.5
v -1 4 1.5
v 0 4 1.5
v -1 4 0.5
v 0 4 0.5
v 0 6 1.5
v 1 6 1.5
v 0 6 -1.5
v 1 6 -1.5

# faces
f 3/2/1 2/2/1 1/2/1
f 4/2/1 2/2/1 3/2/1
f 7/1/1 6/1/1 5/1/1
f 8/1/1 6/1/1 7/1/1
f 10/1/1 6/1/1 8/1/1
f 11/1/1 10/1/1 9/1/1
f 12/1/1 6/1/1 10/1/1
f 12/1/1 10/1/1 11/1/1
f 13/1/2 14/1/2 15/1/2
f 15/1/2 14/1/2 16/1/2
f 20/2/3 18/2/3 17/2/3
f 21/2/3 18/2/3 20/2/3
f 23/1/3 20/1/3 19/1/3
f 23/1/3 22/1/3 21/1/3
f 23/1/3 21/1/3 20/1/3
f 24/1/3 22/1/3 23/1/3
f 25/2/4 26/2/4 27/2/4
f 27/2/4 26/2/4 28/2/4
f 29/1/4 30/1/4 31/1/4
f 31/1/4 30/1/4 32/1/4
f 35/1/5 34/1/5 33/1/5
f 36/1/5 34/1/5 35/1/5
f 39/2/5 38/2/5 37/2/5
f 40/2/5 38/2/5 39/2/5
f 41/2/6 42/2/6 43/2/6
f 43/2/6 42/2/6 44/2/6
f 45/1/6 46/1/6 47/1/6
f 47/1/6 46/1/6 48/1/6
