# MagicaVoxel @ Ephtracy

# group
g kitchen_stand 3

# material
mtllib kitchen_stand 3.mtl
usemtl palette

# normals
vn -1 0 0
vn 1 0 0
vn 0 0 1
vn 0 0 -1
vn 0 -1 0
vn 0 1 0

# texcoords
vt 0.970703 0.5
vt 0.978516 0.5
vt 0.982422 0.5
vt 0.990234 0.5

# verts
v -5.5 1 3.5
v -5.5 1 -3.5
v -5.5 7 3.5
v -5.5 7 -3.5
v -5.5 8 4.5
v -5.5 8 -4.5
v -5.5 10 4.5
v -5.5 10 -4.5
v -4.5 0 4.5
v -4.5 0 -4.5
v -4.5 1 3.5
v -4.5 1 -3.5
v -4.5 7 3.5
v -4.5 7 -3.5
v -4.5 8 4.5
v -4.5 8 -4.5
v 0.5 1 3.5
v 0.5 1 0.5
v 0.5 1 -0.5
v 0.5 1 -3.5
v 0.5 7 3.5
v 0.5 7 0.5
v 0.5 7 -0.5
v 0.5 7 -3.5
v 4.5 10 4.5
v 4.5 10 -4.5
v 4.5 11 4.5
v 4.5 11 -4.5
v -4.5 1 3.5
v -4.5 1 0.5
v -4.5 1 -0.5
v -4.5 1 -3.5
v -4.5 7 3.5
v -4.5 7 0.5
v -4.5 7 -0.5
v -4.5 7 -3.5
v 5.5 0 4.5
v 5.5 0 -4.5
v 5.5 9 4.5
v 5.5 9 -4.5
v 5.5 11 4.5
v 5.5 11 -4.5
v -5.5 8 4.5
v -5.5 10 4.5
v -4.5 0 4.5
v -4.5 8 4.5
v -4.5 9 4.5
v 4.5 10 4.5
v 4.5 11 4.5
v 5.5 0 4.5
v 5.5 9 4.5
v 5.5 11 4.5
v -5.5 1 3.5
v -5.5 7 3.5
v -4.5 1 3.5
v -4.5 7 3.5
v -4.5 1 0.5
v -4.5 7 0.5
v 0.5 1 0.5
v 0.5 7 0.5
v -4.5 1 -3.5
v -4.5 7 -3.5
v 0.5 1 -3.5
v 0.5 7 -3.5
v -4.5 1 3.5
v -4.5 7 3.5
v 0.5 1 3.5
v 0.5 7 3.5
v -4.5 1 -0.5
v -4.5 7 -0.5
v 0.5 1 -0.5
v 0.5 7 -0.5
v -5.5 1 -3.5
v -5.5 7 -3.5
v -4.5 1 -3.5
v -4.5 7 -3.5
v -5.5 8 -4.5
v -5.5 10 -4.5
v -4.5 0 -4.5
v -4.5 8 -4.5
v -4.5 9 -4.5
v 4.5 10 -4.5
v 4.5 11 -4.5
v 5.5 0 -4.5
v 5.5 9 -4.5
v 5.5 11 -4.5
v -4.5 0 4.5
v 5.5 0 4.5
v -4.5 0 -4.5
v 5.5 0 -4.5
v -5.5 1 3.5
v -4.5 1 3.5
v -5.5 1 -3.5
v -4.5 1 -3.5
v -4.5 7 3.5
v 0.5 7 3.5
v -4.5 7 0.5
v 0.5 7 0.5
v -4.5 7 -0.5
v 0.5 7 -0.5
v -4.5 7 -3.5
v 0.5 7 -3.5
v -5.5 8 4.5
v -4.5 8 4.5
v -5.5 8 -4.5
v -4.5 8 -4.5
v -4.5 1 3.5
v 0.5 1 3.5
v -4.5 1 0.5
v 0.5 1 0.5
v -4.5 1 -0.5
v 0.5 1 -0.5
v -4.5 1 -3.5
v 0.5 1 -3.5
v -5.5 7 3.5
v -4.5 7 3.5
v -5.5 7 -3.5
v -4.5 7 -3.5
v -5.5 10 4.5
v 4.5 10 4.5
v -5.5 10 -4.5
v 4.5 10 -4.5
v 4.5 11 4.5
v 5.5 11 4.5
v 4.5 11 -4.5
v 5.5 11 -4.5

# faces
f 3/2/1 2/2/1 1/2/1
f 4/2/1 2/2/1 3/2/1
f 7/4/1 6/4/1 5/4/1
f 8/4/1 6/4/1 7/4/1
f 11/2/1 10/2/1 9/2/1
f 12/2/1 10/2/1 11/2/1
f 13/2/1 11/2/1 9/2/1
f 14/2/1 10/2/1 12/2/1
f 15/2/1 13/2/1 9/2/1
f 15/2/1 14/2/1 13/2/1
f 16/2/1 10/2/1 14/2/1
f 16/2/1 14/2/1 15/2/1
f 21/2/1 18/2/1 17/2/1
f 22/2/1 18/2/1 21/2/1
f 23/2/1 20/2/1 19/2/1
f 24/2/1 20/2/1 23/2/1
f 27/4/1 26/4/1 25/4/1
f 28/4/1 26/4/1 27/4/1
f 29/2/2 30/2/2 33/2/2
f 33/2/2 30/2/2 34/2/2
f 31/2/2 32/2/2 35/2/2
f 35/2/2 32/2/2 36/2/2
f 37/2/2 38/2/2 39/2/2
f 39/2/2 38/2/2 40/2/2
f 39/4/2 40/4/2 41/4/2
f 41/4/2 40/4/2 42/4/2
f 46/4/3 44/4/3 43/4/3
f 47/4/3 44/4/3 46/4/3
f 48/4/3 44/4/3 47/4/3
f 50/2/3 46/2/3 45/2/3
f 50/2/3 47/2/3 46/2/3
f 51/4/3 49/4/3 48/4/3
f 51/2/3 47/2/3 50/2/3
f 51/4/3 48/4/3 47/4/3
f 52/4/3 49/4/3 51/4/3
f 55/2/3 54/2/3 53/2/3
f 56/2/3 54/2/3 55/2/3
f 59/2/3 58/2/3 57/2/3
f 60/2/3 58/2/3 59/2/3
f 63/2/3 62/2/3 61/2/3
f 64/2/3 62/2/3 63/2/3
f 65/2/4 66/2/4 67/2/4
f 67/2/4 66/2/4 68/2/4
f 69/2/4 70/2/4 71/2/4
f 71/2/4 70/2/4 72/2/4
f 73/2/4 74/2/4 75/2/4
f 75/2/4 74/2/4 76/2/4
f 77/4/4 78/4/4 80/4/4
f 80/4/4 78/4/4 81/4/4
f 81/4/4 78/4/4 82/4/4
f 79/2/4 80/2/4 84/2/4
f 80/2/4 81/2/4 84/2/4
f 82/4/4 83/4/4 85/4/4
f 84/2/4 81/2/4 85/2/4
f 81/4/4 82/4/4 85/4/4
f 85/4/4 83/4/4 86/4/4
f 89/2/5 88/2/5 87/2/5
f 90/2/5 88/2/5 89/2/5
f 93/2/5 92/2/5 91/2/5
f 94/2/5 92/2/5 93/2/5
f 97/2/5 96/2/5 95/2/5
f 98/2/5 96/2/5 97/2/5
f 101/2/5 100/2/5 99/2/5
f 102/2/5 100/2/5 101/2/5
f 105/4/5 104/4/5 103/4/5
f 106/4/5 104/4/5 105/4/5
f 107/2/6 108/2/6 109/2/6
f 109/2/6 108/2/6 110/2/6
f 111/2/6 112/2/6 113/2/6
f 113/2/6 112/2/6 114/2/6
f 115/2/6 116/2/6 117/2/6
f 117/2/6 116/2/6 118/2/6
f 119/4/6 120/4/6 121/4/6
f 121/4/6 120/4/6 122/4/6
f 123/4/6 124/4/6 125/4/6
f 125/4/6 124/4/6 126/4/6
