# MagicaVoxel @ Ephtracy

# group
g microwave door

# material
mtllib microwave door.mtl
usemtl palette

# normals
vn -1 0 0
vn 1 0 0
vn 0 0 1
vn 0 0 -1
vn 0 -1 0
vn 0 1 0

# texcoords
vt 0.958984 0.5
vt 0.962891 0.5
vt 0.986328 0.5

# verts
v -1 0 4
v -1 0 3
v -1 5 4
v -1 5 3
v 0 0 3
v 0 0 -4
v 0 1 3
v 0 1 2
v 0 1 -3
v 0 4 3
v 0 4 2
v 0 4 -3
v 0 5 3
v 0 5 -4
v 1 0 4
v 1 0 -4
v 1 1 3
v 1 1 2
v 1 1 -3
v 1 4 3
v 1 4 2
v 1 4 -3
v 1 5 4
v 1 5 -4
v -1 0 4
v -1 5 4
v 0 0 4
v 0 5 4
v 1 0 4
v 1 5 4
v 0 1 -3
v 0 4 -3
v 1 1 -3
v 1 4 -3
v -1 0 3
v -1 5 3
v 0 0 3
v 0 1 3
v 0 4 3
v 0 5 3
v 0 1 2
v 0 4 2
v 1 1 2
v 1 4 2
v 0 0 -4
v 0 5 -4
v 1 0 -4
v 1 5 -4
v -1 0 4
v 0 0 4
v 1 0 4
v -1 0 3
v 0 0 3
v 0 0 -4
v 1 0 -4
v 0 4 2
v 1 4 2
v 0 4 -3
v 1 4 -3
v 0 1 2
v 1 1 2
v 0 1 -3
v 1 1 -3
v -1 5 4
v 0 5 4
v 1 5 4
v -1 5 3
v 0 5 3
v 0 5 -4
v 1 5 -4

# faces
f 3/3/1 2/3/1 1/3/1
f 4/3/1 2/3/1 3/3/1
f 7/1/1 6/1/1 5/1/1
f 8/1/1 6/1/1 7/1/1
f 9/1/1 6/1/1 8/1/1
f 10/2/1 8/2/1 7/2/1
f 11/2/1 8/2/1 10/2/1
f 12/1/1 6/1/1 9/1/1
f 13/1/1 11/1/1 10/1/1
f 13/1/1 12/1/1 11/1/1
f 14/1/1 6/1/1 12/1/1
f 14/1/1 12/1/1 13/1/1
f 15/1/2 16/1/2 17/1/2
f 17/1/2 16/1/2 18/1/2
f 18/1/2 16/1/2 19/1/2
f 15/1/2 17/1/2 20/1/2
f 17/2/2 18/2/2 20/2/2
f 20/2/2 18/2/2 21/2/2
f 19/1/2 16/1/2 22/1/2
f 20/1/2 21/1/2 23/1/2
f 21/1/2 22/1/2 23/1/2
f 15/1/2 20/1/2 23/1/2
f 22/1/2 16/1/2 24/1/2
f 23/1/2 22/1/2 24/1/2
f 27/3/3 26/3/3 25/3/3
f 28/3/3 26/3/3 27/3/3
f 29/1/3 28/1/3 27/1/3
f 30/1/3 28/1/3 29/1/3
f 33/1/3 32/1/3 31/1/3
f 34/1/3 32/1/3 33/1/3
f 35/3/4 36/3/4 37/3/4
f 37/3/4 36/3/4 38/3/4
f 38/3/4 36/3/4 39/3/4
f 39/3/4 36/3/4 40/3/4
f 41/2/4 42/2/4 43/2/4
f 43/2/4 42/2/4 44/2/4
f 45/1/4 46/1/4 47/1/4
f 47/1/4 46/1/4 48/1/4
f 52/3/5 50/3/5 49/3/5
f 53/1/5 51/1/5 50/1/5
f 53/3/5 50/3/5 52/3/5
f 54/1/5 51/1/5 53/1/5
f 55/1/5 51/1/5 54/1/5
f 58/1/5 57/1/5 56/1/5
f 59/1/5 57/1/5 58/1/5
f 60/1/6 61/1/6 62/1/6
f 62/1/6 61/1/6 63/1/6
f 64/3/6 65/3/6 67/3/6
f 65/1/6 66/1/6 68/1/6
f 67/3/6 65/3/6 68/3/6
f 68/1/6 66/1/6 69/1/6
f 69/1/6 66/1/6 70/1/6
