# MagicaVoxel @ Ephtracy

# group
g oven 2

# material
mtllib oven 2.mtl
usemtl palette

# normals
vn -1 0 0
vn 1 0 0
vn 0 0 1
vn 0 0 -1
vn 0 -1 0
vn 0 1 0

# texcoords
vt 0.310547 0.5
vt 0.978516 0.5
vt 0.982422 0.5
vt 0.990234 0.5

# verts
v -6 7 2.5
v -6 7 -2.5
v -6 8 2.5
v -6 8 -2.5
v -5 1 3.5
v -5 1 -3.5
v -5 2 2.5
v -5 2 -2.5
v -5 6 2.5
v -5 6 -2.5
v -5 7 2.5
v -5 7 -2.5
v -5 8 2.5
v -5 8 -2.5
v -5 9 3.5
v -5 9 -3.5
v -4 0 4.5
v -4 0 -4.5
v -4 1 3.5
v -4 1 -3.5
v -4 9 3.5
v -4 9 -3.5
v -4 10 4.5
v -4 10 -4.5
v 5 10 4.5
v 5 10 -4.5
v 5 11 4.5
v 5 11 -4.5
v 5 12 4.5
v 5 12 -4.5
v 6 0 4.5
v 6 0 -4.5
v 6 11 4.5
v 6 11 -4.5
v 6 12 4.5
v 6 12 -4.5
v -4 0 4.5
v -4 10 4.5
v 5 10 4.5
v 5 11 4.5
v 5 12 4.5
v 6 0 4.5
v 6 11 4.5
v 6 12 4.5
v -5 1 3.5
v -5 9 3.5
v -4 1 3.5
v -4 9 3.5
v -6 7 2.5
v -6 8 2.5
v -5 7 2.5
v -5 8 2.5
v -6 7 -2.5
v -6 8 -2.5
v -5 7 -2.5
v -5 8 -2.5
v -5 1 -3.5
v -5 9 -3.5
v -4 1 -3.5
v -4 9 -3.5
v -4 0 -4.5
v -4 10 -4.5
v 5 10 -4.5
v 5 11 -4.5
v 5 12 -4.5
v 6 0 -4.5
v 6 11 -4.5
v 6 12 -4.5
v -4 0 4.5
v 6 0 4.5
v -4 0 -4.5
v 6 0 -4.5
v -5 1 3.5
v -4 1 3.5
v -5 1 -3.5
v -4 1 -3.5
v -6 7 2.5
v -5 7 2.5
v -6 7 -2.5
v -5 7 -2.5
v -6 8 2.5
v -5 8 2.5
v -6 8 -2.5
v -5 8 -2.5
v -5 9 3.5
v -4 9 3.5
v -5 9 -3.5
v -4 9 -3.5
v -4 10 4.5
v 5 10 4.5
v -3 10 3.5
v 0 10 3.5
v 1 10 3.5
v 4 10 3.5
v -2 10 2.5
v -1 10 2.5
v 2 10 2.5
v 3 10 2.5
v -2 10 1.5
v -1 10 1.5
v 2 10 1.5
v 3 10 1.5
v -3 10 0.5
v 0 10 0.5
v 1 10 0.5
v 4 10 0.5
v -3 10 -0.5
v 0 10 -0.5
v 1 10 -0.5
v 4 10 -0.5
v -2 10 -1.5
v -1 10 -1.5
v 2 10 -1.5
v 3 10 -1.5
v -2 10 -2.5
v -1 10 -2.5
v 2 10 -2.5
v 3 10 -2.5
v -3 10 -3.5
v 0 10 -3.5
v 1 10 -3.5
v 4 10 -3.5
v -4 10 -4.5
v 5 10 -4.5
v 5 12 4.5
v 6 12 4.5
v 5 12 -4.5
v 6 12 -4.5

# faces
f 3/4/1 2/4/1 1/4/1
f 4/4/1 2/4/1 3/4/1
f 7/2/1 6/2/1 5/2/1
f 8/2/1 6/2/1 7/2/1
f 9/2/1 7/2/1 5/2/1
f 9/1/1 8/1/1 7/1/1
f 10/2/1 6/2/1 8/2/1
f 10/1/1 8/1/1 9/1/1
f 11/2/1 9/2/1 5/2/1
f 11/2/1 10/2/1 9/2/1
f 12/2/1 6/2/1 10/2/1
f 12/2/1 10/2/1 11/2/1
f 13/2/1 11/2/1 5/2/1
f 14/2/1 6/2/1 12/2/1
f 15/2/1 13/2/1 5/2/1
f 15/2/1 14/2/1 13/2/1
f 16/2/1 6/2/1 14/2/1
f 16/2/1 14/2/1 15/2/1
f 19/2/1 18/2/1 17/2/1
f 20/2/1 18/2/1 19/2/1
f 21/2/1 19/2/1 17/2/1
f 22/2/1 18/2/1 20/2/1
f 23/2/1 21/2/1 17/2/1
f 23/2/1 22/2/1 21/2/1
f 24/2/1 18/2/1 22/2/1
f 24/2/1 22/2/1 23/2/1
f 27/2/1 26/2/1 25/2/1
f 28/2/1 26/2/1 27/2/1
f 29/4/1 28/4/1 27/4/1
f 30/4/1 28/4/1 29/4/1
f 31/2/2 32/2/2 33/2/2
f 33/2/2 32/2/2 34/2/2
f 33/4/2 34/4/2 35/4/2
f 35/4/2 34/4/2 36/4/2
f 39/2/3 38/2/3 37/2/3
f 42/2/3 39/2/3 37/2/3
f 42/2/3 40/2/3 39/2/3
f 43/4/3 41/4/3 40/4/3
f 43/2/3 40/2/3 42/2/3
f 44/4/3 41/4/3 43/4/3
f 47/2/3 46/2/3 45/2/3
f 48/2/3 46/2/3 47/2/3
f 51/4/3 50/4/3 49/4/3
f 52/4/3 50/4/3 51/4/3
f 53/4/4 54/4/4 55/4/4
f 55/4/4 54/4/4 56/4/4
f 57/2/4 58/2/4 59/2/4
f 59/2/4 58/2/4 60/2/4
f 61/2/4 62/2/4 63/2/4
f 61/2/4 63/2/4 66/2/4
f 63/2/4 64/2/4 66/2/4
f 64/4/4 65/4/4 67/4/4
f 66/2/4 64/2/4 67/2/4
f 67/4/4 65/4/4 68/4/4
f 71/2/5 70/2/5 69/2/5
f 72/2/5 70/2/5 71/2/5
f 75/2/5 74/2/5 73/2/5
f 76/2/5 74/2/5 75/2/5
f 79/4/5 78/4/5 77/4/5
f 80/4/5 78/4/5 79/4/5
f 81/4/6 82/4/6 83/4/6
f 83/4/6 82/4/6 84/4/6
f 85/2/6 86/2/6 87/2/6
f 87/2/6 86/2/6 88/2/6
f 89/2/6 90/2/6 91/2/6
f 91/2/6 90/2/6 92/2/6
f 92/2/6 90/2/6 93/2/6
f 93/2/6 90/2/6 94/2/6
f 91/4/6 92/4/6 95/4/6
f 95/4/6 92/4/6 96/4/6
f 93/4/6 94/4/6 97/4/6
f 97/4/6 94/4/6 98/4/6
f 91/4/6 95/4/6 99/4/6
f 95/2/6 96/2/6 99/2/6
f 96/4/6 92/4/6 100/4/6
f 99/2/6 96/2/6 100/2/6
f 97/2/6 98/2/6 101/2/6
f 93/4/6 97/4/6 101/4/6
f 98/4/6 94/4/6 102/4/6
f 101/2/6 98/2/6 102/2/6
f 89/2/6 91/2/6 103/2/6
f 91/4/6 99/4/6 103/4/6
f 99/4/6 100/4/6 103/4/6
f 92/2/6 93/2/6 104/2/6
f 103/4/6 100/4/6 104/4/6
f 100/4/6 92/4/6 104/4/6
f 101/4/6 102/4/6 105/4/6
f 104/2/6 93/2/6 105/2/6
f 93/4/6 101/4/6 105/4/6
f 102/4/6 94/4/6 106/4/6
f 105/4/6 102/4/6 106/4/6
f 94/2/6 90/2/6 106/2/6
f 104/2/6 105/2/6 107/2/6
f 103/2/6 104/2/6 107/2/6
f 105/2/6 106/2/6 107/2/6
f 89/2/6 103/2/6 107/2/6
f 107/2/6 106/2/6 108/2/6
f 108/2/6 106/2/6 109/2/6
f 106/2/6 90/2/6 110/2/6
f 109/2/6 106/2/6 110/2/6
f 107/4/6 108/4/6 111/4/6
f 111/4/6 108/4/6 112/4/6
f 109/4/6 110/4/6 113/4/6
f 113/4/6 110/4/6 114/4/6
f 107/4/6 111/4/6 115/4/6
f 111/2/6 112/2/6 115/2/6
f 112/4/6 108/4/6 116/4/6
f 115/2/6 112/2/6 116/2/6
f 113/2/6 114/2/6 117/2/6
f 109/4/6 113/4/6 117/4/6
f 114/4/6 110/4/6 118/4/6
f 117/2/6 114/2/6 118/2/6
f 89/2/6 107/2/6 119/2/6
f 107/4/6 115/4/6 119/4/6
f 115/4/6 116/4/6 119/4/6
f 108/2/6 109/2/6 120/2/6
f 119/4/6 116/4/6 120/4/6
f 116/4/6 108/4/6 120/4/6
f 117/4/6 118/4/6 121/4/6
f 120/2/6 109/2/6 121/2/6
f 109/4/6 117/4/6 121/4/6
f 118/4/6 110/4/6 122/4/6
f 121/4/6 118/4/6 122/4/6
f 110/2/6 90/2/6 122/2/6
f 89/2/6 119/2/6 123/2/6
f 120/2/6 121/2/6 123/2/6
f 121/2/6 122/2/6 123/2/6
f 119/2/6 120/2/6 123/2/6
f 122/2/6 90/2/6 124/2/6
f 123/2/6 122/2/6 124/2/6
f 125/4/6 126/4/6 127/4/6
f 127/4/6 126/4/6 128/4/6
