# MagicaVoxel @ Ephtracy

# group
g waffle machine top

# material
mtllib waffle machine top.mtl
usemtl palette

# normals
vn -1 0 0
vn 1 0 0
vn 0 0 1
vn 0 0 -1
vn 0 -1 0
vn 0 1 0

# texcoords
vt 0.986328 0.5
vt 0.994141 0.5

# verts
v -3.5 0 4.5
v -3.5 0 -4.5
v -3.5 1 3.5
v -3.5 1 -3.5
v -3.5 2 4.5
v -3.5 2 3.5
v -3.5 2 -3.5
v -3.5 2 -4.5
v -3.5 3 3.5
v -3.5 3 -3.5
v -2.5 1 3.5
v -2.5 1 -3.5
v -2.5 2 3.5
v -2.5 2 -3.5
v -2.5 1 4.5
v -2.5 1 3.5
v -2.5 1 -3.5
v -2.5 1 -4.5
v -2.5 2 4.5
v -2.5 2 3.5
v -2.5 2 -3.5
v -2.5 2 -4.5
v -2.5 3 3.5
v -2.5 3 -3.5
v 2.5 1 3.5
v 2.5 1 -3.5
v 2.5 2 3.5
v 2.5 2 -3.5
v 3.5 0 4.5
v 3.5 0 -4.5
v 3.5 1 4.5
v 3.5 1 -4.5
v -3.5 0 4.5
v -3.5 2 4.5
v -2.5 1 4.5
v -2.5 2 4.5
v 3.5 0 4.5
v 3.5 1 4.5
v -3.5 2 3.5
v -3.5 3 3.5
v -2.5 1 3.5
v -2.5 2 3.5
v -2.5 3 3.5
v 2.5 1 3.5
v 2.5 2 3.5
v -3.5 1 -3.5
v -3.5 2 -3.5
v -2.5 1 -3.5
v -2.5 2 -3.5
v -3.5 1 3.5
v -3.5 2 3.5
v -2.5 1 3.5
v -2.5 2 3.5
v -3.5 2 -3.5
v -3.5 3 -3.5
v -2.5 1 -3.5
v -2.5 2 -3.5
v -2.5 3 -3.5
v 2.5 1 -3.5
v 2.5 2 -3.5
v -3.5 0 -4.5
v -3.5 2 -4.5
v -2.5 1 -4.5
v -2.5 2 -4.5
v 3.5 0 -4.5
v 3.5 1 -4.5
v -3.5 0 4.5
v 3.5 0 4.5
v -2.5 0 3.5
v 2.5 0 3.5
v -1.5 0 2.5
v 1.5 0 2.5
v -1.5 0 1.5
v 1.5 0 1.5
v -1.5 0 0.5
v 1.5 0 0.5
v -1.5 0 -0.5
v 1.5 0 -0.5
v -1.5 0 -1.5
v 1.5 0 -1.5
v -1.5 0 -2.5
v 1.5 0 -2.5
v -2.5 0 -3.5
v 2.5 0 -3.5
v -3.5 0 -4.5
v 3.5 0 -4.5
v -3.5 2 3.5
v -2.5 2 3.5
v -3.5 2 -3.5
v -2.5 2 -3.5
v -2.5 1 4.5
v 3.5 1 4.5
v -3.5 1 3.5
v -2.5 1 3.5
v 2.5 1 3.5
v -3.5 1 -3.5
v -2.5 1 -3.5
v 2.5 1 -3.5
v -2.5 1 -4.5
v 3.5 1 -4.5
v -3.5 2 4.5
v -2.5 2 4.5
v -3.5 2 3.5
v -2.5 2 3.5
v 2.5 2 3.5
v -3.5 2 -3.5
v -2.5 2 -3.5
v 2.5 2 -3.5
v -3.5 2 -4.5
v -2.5 2 -4.5
v -3.5 3 3.5
v -2.5 3 3.5
v -3.5 3 -3.5
v -2.5 3 -3.5

# faces
f 3/1/1 2/1/1 1/1/1
f 4/1/1 2/1/1 3/1/1
f 5/1/1 3/1/1 1/1/1
f 6/1/1 3/1/1 5/1/1
f 7/1/1 2/1/1 4/1/1
f 8/1/1 2/1/1 7/1/1
f 9/1/1 7/1/1 6/1/1
f 10/1/1 7/1/1 9/1/1
f 13/1/1 12/1/1 11/1/1
f 14/1/1 12/1/1 13/1/1
f 15/1/2 16/1/2 19/1/2
f 19/1/2 16/1/2 20/1/2
f 17/1/2 18/1/2 21/1/2
f 21/1/2 18/1/2 22/1/2
f 20/1/2 21/1/2 23/1/2
f 23/1/2 21/1/2 24/1/2
f 25/1/2 26/1/2 27/1/2
f 27/1/2 26/1/2 28/1/2
f 29/1/2 30/1/2 31/1/2
f 31/1/2 30/1/2 32/1/2
f 35/1/3 34/1/3 33/1/3
f 36/1/3 34/1/3 35/1/3
f 37/1/3 35/1/3 33/1/3
f 38/1/3 35/1/3 37/1/3
f 42/1/3 40/1/3 39/1/3
f 43/1/3 40/1/3 42/1/3
f 44/1/3 42/1/3 41/1/3
f 45/1/3 42/1/3 44/1/3
f 48/1/3 47/1/3 46/1/3
f 49/1/3 47/1/3 48/1/3
f 50/1/4 51/1/4 52/1/4
f 52/1/4 51/1/4 53/1/4
f 54/1/4 55/1/4 57/1/4
f 57/1/4 55/1/4 58/1/4
f 56/1/4 57/1/4 59/1/4
f 59/1/4 57/1/4 60/1/4
f 61/1/4 62/1/4 63/1/4
f 63/1/4 62/1/4 64/1/4
f 61/1/4 63/1/4 65/1/4
f 65/1/4 63/1/4 66/1/4
f 69/1/5 68/1/5 67/1/5
f 70/1/5 68/1/5 69/1/5
f 71/2/5 70/2/5 69/2/5
f 72/2/5 70/2/5 71/2/5
f 73/2/5 71/2/5 69/2/5
f 73/1/5 72/1/5 71/1/5
f 74/2/5 70/2/5 72/2/5
f 74/1/5 72/1/5 73/1/5
f 75/2/5 73/2/5 69/2/5
f 75/2/5 74/2/5 73/2/5
f 76/2/5 70/2/5 74/2/5
f 76/2/5 74/2/5 75/2/5
f 77/2/5 75/2/5 69/2/5
f 77/1/5 76/1/5 75/1/5
f 78/2/5 70/2/5 76/2/5
f 78/1/5 76/1/5 77/1/5
f 79/2/5 77/2/5 69/2/5
f 79/2/5 78/2/5 77/2/5
f 80/2/5 70/2/5 78/2/5
f 80/2/5 78/2/5 79/2/5
f 81/2/5 79/2/5 69/2/5
f 81/1/5 80/1/5 79/1/5
f 82/2/5 70/2/5 80/2/5
f 82/1/5 80/1/5 81/1/5
f 83/1/5 69/1/5 67/1/5
f 83/2/5 81/2/5 69/2/5
f 83/2/5 82/2/5 81/2/5
f 84/2/5 70/2/5 82/2/5
f 84/2/5 82/2/5 83/2/5
f 84/1/5 68/1/5 70/1/5
f 85/1/5 83/1/5 67/1/5
f 85/1/5 84/1/5 83/1/5
f 86/1/5 68/1/5 84/1/5
f 86/1/5 84/1/5 85/1/5
f 89/1/5 88/1/5 87/1/5
f 90/1/5 88/1/5 89/1/5
f 91/1/6 92/1/6 94/1/6
f 94/1/6 92/1/6 95/1/6
f 93/1/6 94/1/6 96/1/6
f 96/1/6 94/1/6 97/1/6
f 95/1/6 92/1/6 98/1/6
f 97/1/6 98/1/6 99/1/6
f 98/1/6 92/1/6 100/1/6
f 99/1/6 98/1/6 100/1/6
f 101/1/6 102/1/6 103/1/6
f 103/1/6 102/1/6 104/1/6
f 104/1/6 105/1/6 107/1/6
f 107/1/6 105/1/6 108/1/6
f 106/1/6 107/1/6 109/1/6
f 109/1/6 107/1/6 110/1/6
f 111/1/6 112/1/6 113/1/6
f 113/1/6 112/1/6 114/1/6
